Simulation
nRows=40
nColumns=15
endheader
time  TH_x TH_y TH_z SC_y  SC_z  SC_x  AC_y  AC_z  AC_x  GH_y  GH_z  GH_yy  EL_x  PS_y
0.0  0.000000  0.000000  0.000000  -29.063061989982245  -0.3245658754252823  0.4245148030569998  49.54387233122828  5.42665239333582  -4.526001437553427  40.56154581912218  8.777388459629021  -9.999852996739506  22.77539453070545  0.000000
0.031  0.000000  0.000000  0.000000  -29.047857652866675  -0.19973478927861152  0.5636100902929632  49.36435969880584  5.586489788051728  -4.616853464099293  39.36139617212834  9.02175963100131  -8.900277237386376  22.744574619039376  0.000000
0.062  0.000000  0.000000  0.000000  -28.944017109696144  -0.1455937380343523  0.6687968190653195  49.257549066418356  5.587391375622287  -4.746906648353622  38.58881519066259  9.272554072765159  -8.180697375176528  22.73496942707735  0.000000
0.093  0.000000  0.000000  0.000000  -28.941361360878354  -0.16478537005589455  0.758805876440393  49.17616600955186  5.483742367260803  -4.878849579062935  38.290539097651326  9.555194250919897  -7.958451210397153  22.691284573890783  0.000000
0.124  0.000000  0.000000  0.000000  -28.925265890323416  -0.21573106031723327  0.8191868140154231  49.10790734691103  5.357955251957447  -5.014889773174179  38.33702830307393  9.840616053425675  -8.11505571807332  22.60649526501438  0.000000
0.155  0.000000  0.000000  0.000000  -28.939801282870516  -0.2874690266826271  0.8624465332300159  49.05917756714084  5.236299057412754  -5.142457491946098  38.534827059720826  10.156476348523956  -8.466520958818494  22.48437662295191  0.000000
0.186  0.000000  0.000000  0.000000  -28.963981229203426  -0.36601290175941575  0.891826607203688  49.013578535186156  5.131170034827179  -5.258284237181194  38.79515577703954  10.519892128312502  -8.962347080481939  22.330549000133622  0.000000
0.217  0.000000  0.000000  0.000000  -29.010097672419462  -0.44407392840407817  0.9182815391301277  48.986933194944974  5.042274725497372  -5.365617588216115  39.02765308454662  10.95653888355431  -9.51523665580543  22.152699173963896  0.000000
0.248  0.000000  0.000000  0.000000  -29.071903665984017  -0.5128222973246667  0.9470871120770181  48.961039157439  4.967578083782917  -5.459864248346884  39.190775018682906  11.473210418872505  -10.10201496475354  21.962962345209736  0.000000
0.279  0.000000  0.000000  0.000000  -29.149290137178326  -0.5694884600599651  0.9833660615938695  48.948500957500855  4.906767577956657  -5.546235906460549  39.254572961768176  12.07815479758457  -10.685261037196344  21.76384221972485  0.000000
0.31  0.000000  0.000000  0.000000  -29.23365713134062  -0.6119437642922001  1.0310896235932618  48.93950026550237  4.8603806626844035  -5.621263926390941  39.2009000151808  12.764693480388042  -11.244842674319333  21.56749911661558  0.000000
0.34099999999999997  0.000000  0.000000  0.000000  -29.3218395919766  -0.6411547310195861  1.0927269499723187  48.946170172377435  4.82725201071288  -5.686638027975568  39.01806351111521  13.53183928911208  -11.763571397102638  21.380045269946496  0.000000
0.372  0.000000  0.000000  0.000000  -29.411596126560354  -0.6606049349233047  1.1696155292659665  48.970898569205545  4.806580917031129  -5.737642000710407  38.674708963345005  14.373084461448665  -12.211299684861665  21.22480166629233  0.000000
0.403  0.000000  0.000000  0.000000  -29.505022701301115  -0.6752124587887219  1.2612423758514621  49.026338205279714  4.7949190995395155  -5.771535991440977  38.13956216291682  15.287289531589872  -12.56117115527304  21.1225460779551  0.000000
0.434  0.000000  0.000000  0.000000  -29.60205839194934  -0.6894693011498226  1.36622717170343  49.1181572123201  4.791186270876206  -5.784995579656707  37.394003309898075  16.271510889585578  -12.793191796424068  21.0959850631243  0.000000
0.46499999999999997  0.000000  0.000000  0.000000  -29.698425781052148  -0.7038790720056326  1.4828647556197958  49.24835971797544  4.794163651215309  -5.775897200836038  36.45131034413082  17.32328794369902  -12.904632662284119  21.145603971413266  0.000000
0.496  0.000000  0.000000  0.000000  -29.78427187732447  -0.7145472113193523  1.6091697727481782  49.41175965444435  4.8061711439829935  -5.744726832334553  35.36523906839686  18.439836786033936  -12.915807233254661  21.25159613443491  0.000000
0.527  0.000000  0.000000  0.000000  -29.848803934780147  -0.7136841881708649  1.7444955901683012  49.59663358388249  4.829776821678807  -5.6920906248769025  34.20357855430003  19.616508219475087  -12.850525853779933  21.37948490187019  0.000000
0.558  0.000000  0.000000  0.000000  -29.88575803775788  -0.6926504264014025  1.8896035368558124  49.790582076416165  4.8694754333307815  -5.622576404573519  33.042938724757065  20.84864341814786  -12.746198103230077  21.498668873876596  0.000000
0.589  0.000000  0.000000  0.000000  -29.90085453369925  -0.6439430105579222  2.0481571679396846  49.98065923087522  4.9277336795930164  -5.540884285669115  31.949123588409375  22.130036145481625  -12.644270670422108  21.590120386600702  0.000000
0.62  0.000000  0.000000  0.000000  -29.904876942599852  -0.5626282462787213  2.2252779837062246  50.15813222447898  5.005746471699886  -5.454311362524325  30.9768502860007  23.455130014234395  -12.591878198056934  21.646312237826926  0.000000
0.651  0.000000  0.000000  0.000000  -29.90988395852704  -0.4469333526044577  2.428285852509558  50.31857070646398  5.101127927691348  -5.368170123863715  30.14847328169663  24.817569512415613  -12.612710139519413  21.66682588215343  0.000000
0.6819999999999999  0.000000  0.000000  0.000000  -29.91826969831703  -0.3000299205486425  2.6629661312353  50.46382806885491  5.209436638136511  -5.287696095298387  29.45425851332111  26.213855246754772  -12.707720520020366  21.655264122783898  0.000000
0.713  0.000000  0.000000  0.000000  -29.927434558487036  -0.13008310134233345  2.933537817686058  50.60017942760799  5.324288019784728  -5.215508904583666  28.85269968727811  27.642977701813777  -12.849310325610485  21.619283455410354  0.000000
0.744  0.000000  0.000000  0.000000  -29.928546458813013  0.05328758078137378  3.241327218589063  50.73623339055053  5.441047081667278  -5.1541319739116975  28.29802379315285  29.104216445814387  -13.005553294194799  21.567823097424085  0.000000
0.775  0.000000  0.000000  0.000000  -29.916836116544  0.2422376449886809  3.5873937207758733  50.87845964139301  5.557375105984491  -5.104283172815736  27.759523042529008  30.59241193603942  -13.154632383298129  21.507228484957672  0.000000
0.806  0.000000  0.000000  0.000000  -29.890786233918995  0.4332892082100892  3.9727279852110704  51.030307806692264  5.674644046753686  -5.067041854389104  27.237307998670573  32.09587834527759  -13.299706454375961  21.437013222687664  0.000000
0.837  0.000000  0.000000  0.000000  -29.855069730685457  0.6266784926420119  4.40009836476844  51.19131708971903  5.795532059840883  -5.042525762965045  26.748527508078357  33.59675498596355  -13.455615085543933  21.351825541661714  0.000000
0.868  0.000000  0.000000  0.000000  -29.813362229521797  0.8240787521925689  4.871927021917624  51.35931185513305  5.921966935410195  -5.031975443292336  26.31295276665285  35.07639083746306  -13.639614843059878  21.24495110215674  0.000000
0.899  0.000000  0.000000  0.000000  -29.770443487865553  1.02643613265119  5.389803739334585  51.53128051970147  6.052618051963082  -5.035801674969135  25.93871132714151  36.51964482834743  -13.859043654048707  21.112372075401794  0.000000
0.9299999999999999  0.000000  0.000000  0.000000  -29.727237895390417  1.2334933385711415  5.9521301919685845  51.70359746783148  6.184381385971498  -5.054921913036537  25.624071001958935  37.917331896966594  -14.115288123999845  20.95331744921201  0.000000
0.961  0.000000  0.000000  0.000000  -29.68595533102747  1.445483827847141  6.555992475822769  51.870959948346595  6.313611003163373  -5.089579968942779  25.363031770787355  39.2648336103874  -14.40709742632796  20.76861395922237  0.000000
0.992  0.000000  0.000000  0.000000  -29.650064719484526  1.6640697233002484  7.197844224040828  52.02569665694804  6.438756564365383  -5.140826938607284  25.157504548771627  40.56014001668244  -14.741645265436638  20.558669166037266  0.000000
1.023  0.000000  0.000000  0.000000  -29.62923629065432  1.8932071343552404  7.876726447571783  52.15854322870641  6.559809469919354  -5.2096620743389135  25.017854481778365  41.80246945823875  -15.132988511495267  20.322898154033897  0.000000
1.054  0.000000  0.000000  0.000000  -29.632152245890794  2.1379071454015888  8.594682489041514  52.26131569143036  6.677624230135404  -5.297335347814515  24.9555068956068  42.991542512560336  -15.594694222637223  20.060954123980387  0.000000
1.085  0.000000  0.000000  0.000000  -29.66638044475327  2.4022919487622953  9.357163909321974  52.332271235342105  6.792096885221977  -5.401944903973405  24.96770377857785  44.128063987393084  -16.1231236869877  19.776363826897285  0.000000
1.116  0.000000  0.000000  0.000000  -29.73106602834224  2.687269095437521  10.167071646618567  52.37809948942648  6.904195037047977  -5.516534269519055  25.027723562762812  45.21387272748786  -16.688685290799054  19.480806933810094  0.000000
1.147  0.000000  0.000000  0.000000  -29.82104342290941  2.9901085986046025  11.023662605201114  52.41174787658474  7.016789856149176  -5.629613393646504  25.087059358704824  46.25151918592311  -17.238919186495025  19.193936310626206  0.000000
1.178  0.000000  0.000000  0.000000  -29.929060958665303  3.306018894330253  11.921846508259556  52.44593788858873  7.133673223042575  -5.72896212921956  25.097832103857925  47.24345168630039  -17.72196595017109  18.936052899490065  0.000000
1.209  0.000000  0.000000  0.000000  -30.055050366360646  3.632078584120986  12.853480113480984  52.48621646098136  7.257565906504673  -5.804543651407742  25.036455674537706  48.193187898474605  -18.108768860360843  18.720188849837044  0.000000
